<svg width="35" height="35" viewBox="0 0 35 35" fill="none" xmlns="http://www.w3.org/2000/svg">
<path d="M20.1979 16.9896C20.2655 17.0563 20.3191 17.1358 20.3557 17.2234C20.3923 17.311 20.4112 17.405 20.4112 17.5C20.4112 17.595 20.3923 17.689 20.3557 17.7766C20.3191 17.8642 20.2655 17.9437 20.1979 18.0104L15.8229 22.3854C15.6871 22.5185 15.5042 22.5927 15.314 22.5917C15.1238 22.5907 14.9417 22.5148 14.8072 22.3803C14.6727 22.2458 14.5968 22.0637 14.5958 21.8735C14.5948 21.6833 14.669 21.5004 14.8021 21.3646L18.6521 17.5L14.8021 13.6354C14.669 13.4996 14.5948 13.3167 14.5958 13.1265C14.5968 12.9363 14.6727 12.7542 14.8072 12.6197C14.9417 12.4852 15.1238 12.4093 15.314 12.4083C15.5042 12.4073 15.6871 12.4815 15.8229 12.6146L20.1979 16.9896Z" fill="#FF7F27"/>
<path d="M17.5 3.01437C20.365 3.01437 23.1656 3.86394 25.5478 5.45564C27.9299 7.04734 29.7866 9.30969 30.883 11.9566C31.9794 14.6035 32.2662 17.5161 31.7073 20.326C31.1484 23.1359 29.7687 25.717 27.7429 27.7429C25.717 29.7687 23.1359 31.1484 20.326 31.7073C17.5161 32.2662 14.6035 31.9794 11.9566 30.883C9.30969 29.7866 7.04734 27.9299 5.45564 25.5478C3.86394 23.1656 3.01437 20.365 3.01437 17.5C3.01862 13.6595 4.54614 9.97747 7.26181 7.2618C9.97747 4.54614 13.6595 3.01862 17.5 3.01437V3.01437ZM17.5 30.5273C20.0766 30.5273 22.5952 29.7633 24.7376 28.3318C26.8799 26.9003 28.5496 24.8658 29.5356 22.4853C30.5217 20.1049 30.7796 17.4855 30.277 14.9585C29.7743 12.4315 28.5336 10.1102 26.7117 8.28831C24.8898 6.46641 22.5685 5.22568 20.0415 4.72302C17.5144 4.22036 14.8951 4.47835 12.5147 5.46435C10.1342 6.45036 8.09966 8.1201 6.6682 10.2624C5.23675 12.4048 4.47271 14.9234 4.47271 17.5C4.47657 20.9539 5.85032 24.2652 8.29258 26.7074C10.7348 29.1497 14.0461 30.5234 17.5 30.5273V30.5273Z" fill="#FF7F27"/>
</svg>
