<svg width="35" height="35" viewBox="0 0 35 35" fill="none" xmlns="http://www.w3.org/2000/svg">
<path d="M14.8021 18.0104C14.7345 17.9437 14.6809 17.8642 14.6443 17.7766C14.6077 17.689 14.5888 17.595 14.5888 17.5C14.5888 17.405 14.6077 17.311 14.6443 17.2234C14.6809 17.1358 14.7345 17.0563 14.8021 16.9896L19.1771 12.6146C19.3129 12.4815 19.4958 12.4073 19.686 12.4083C19.8762 12.4092 20.0583 12.4852 20.1928 12.6197C20.3273 12.7542 20.4032 12.9363 20.4042 13.1265C20.4052 13.3167 20.331 13.4996 20.1979 13.6354L16.3479 17.5L20.1979 21.3646C20.331 21.5004 20.4052 21.6833 20.4042 21.8735C20.4032 22.0637 20.3273 22.2458 20.1928 22.3803C20.0583 22.5148 19.8762 22.5907 19.686 22.5917C19.4958 22.5927 19.3129 22.5185 19.1771 22.3854L14.8021 18.0104Z" fill="#FF7F27"/>
<path d="M17.5 31.9856C14.635 31.9856 11.8344 31.1361 9.45222 29.5444C7.07007 27.9527 5.21341 25.6903 4.11703 23.0434C3.02064 20.3965 2.73378 17.4839 3.29271 14.674C3.85164 11.8641 5.23127 9.28297 7.25712 7.25711C9.28297 5.23126 11.8641 3.85164 14.674 3.29271C17.4839 2.73378 20.3965 3.02064 23.0434 4.11703C25.6903 5.21341 27.9527 7.07007 29.5444 9.45222C31.1361 11.8344 31.9856 14.635 31.9856 17.5C31.9814 21.3405 30.4539 25.0225 27.7382 27.7382C25.0225 30.4539 21.3405 31.9814 17.5 31.9856V31.9856ZM17.5 4.47271C14.9234 4.47271 12.4048 5.23674 10.2624 6.6682C8.1201 8.09966 6.45036 10.1342 5.46435 12.5147C4.47835 14.8951 4.22036 17.5144 4.72302 20.0415C5.22568 22.5685 6.46641 24.8898 8.28831 26.7117C10.1102 28.5336 12.4315 29.7743 14.9585 30.277C17.4855 30.7796 20.1049 30.5217 22.4853 29.5356C24.8658 28.5496 26.9003 26.8799 28.3318 24.7376C29.7633 22.5952 30.5273 20.0766 30.5273 17.5C30.5234 14.0461 29.1497 10.7348 26.7074 8.29257C24.2652 5.85032 20.9539 4.47657 17.5 4.47271V4.47271Z" fill="#FF7F27"/>
</svg>
