<svg width="25" height="26" viewBox="0 0 25 26" fill="none" xmlns="http://www.w3.org/2000/svg">
<path d="M24.5264 9.81641C24.7168 9.66504 25 9.80664 25 10.0459V20.0312C25 21.3252 23.9502 22.375 22.6562 22.375H2.34375C1.0498 22.375 0 21.3252 0 20.0312V10.0508C0 9.80664 0.27832 9.66992 0.473633 9.82129C1.56738 10.6709 3.01758 11.75 7.99805 15.3682C9.02832 16.1201 10.7666 17.7021 12.5 17.6924C14.2432 17.707 16.0156 16.0908 17.0068 15.3682C21.9873 11.75 23.4326 10.666 24.5264 9.81641ZM12.5 16.125C13.6328 16.1445 15.2637 14.6992 16.084 14.1035C22.5635 9.40137 23.0566 8.99121 24.5508 7.81934C24.834 7.59961 25 7.25781 25 6.89648V5.96875C25 4.6748 23.9502 3.625 22.6562 3.625H2.34375C1.0498 3.625 0 4.6748 0 5.96875V6.89648C0 7.25781 0.166016 7.59473 0.449219 7.81934C1.94336 8.98633 2.43652 9.40137 8.91602 14.1035C9.73633 14.6992 11.3672 16.1445 12.5 16.125Z" fill="#F69100"/>
</svg>
