<svg width="640" height="512" viewBox="0 0 640 512" fill="none" xmlns="http://www.w3.org/2000/svg">
<path d="M334.6 217.4L304.6 244.89C264 282.1 217.8 256.8 202.9 240.6C176 211.2 178.1 165.7 207.3 138.9L289.1 64H282.5C224.7 64 169.1 86.95 128.2 127.8L32 128.1C14.4 128.1 0 142.49 0 160.08V319.88C0 337.47 14.4 351.92 31.1 351.92L145.4 351.86L235.9 433.68C263.4 456.05 303.65 451.79 325.9 424.425L344.02 439.675C359.9 451.775 383.4 450.175 396.4 434.306L427.78 395.706L433.154 400.204C446.904 411.204 467.034 409.206 478.154 395.456L487.73 383.626C498.81 369.926 496.709 349.876 483.029 338.766L334.6 217.4ZM608 128.1L512 127.974C471.02 87.0143 415.44 64.0943 357.5 64.0943L348.9 64C340.9 64 333.28 67.197 327.28 72.568L229 162.3C228.9 162.5 228.8 162.7 228.8 162.7C212 178.5 212.4 203.3 226.6 218.7C236.225 229.2 261.6 240.32 282.73 221.45C282.73 221.325 282.98 221.325 283.105 221.2L363.105 148.1C369.605 142.229 379.725 142.604 385.725 149.1C391.725 155.596 391.225 165.72 384.725 171.72L358.605 195.59L504.205 313.69C516.325 323.682 523.705 337.18 526.325 351.67L608 351.7C625.6 351.7 640 337.32 640 319.72V160.1C640 142.4 625.7 128.1 608 128.1Z" fill="#F69100"/>
</svg>
