<svg width="512" height="512" viewBox="0 0 512 512" fill="none" xmlns="http://www.w3.org/2000/svg">
<path d="M0 198.748V192.948C0 123.048 50.52 63.4277 119.4 51.9477C164.1 44.3577 211.4 59.2177 244 91.8677L256 103.848L267.1 91.8677C300.6 59.2177 347 44.3577 392.6 51.9477C461.5 63.4277 512 123.048 512 192.948V198.748C512 240.248 494.8 279.948 464.4 308.248L283.7 476.948C276.2 483.948 266.3 487.848 256 487.848C245.7 487.848 235.8 483.948 228.3 476.948L47.59 308.248C17.23 279.948 0 240.248 0 198.748Z" fill="#F69100"/>
</svg>
