<svg width="256" height="256" viewBox="0 0 256 256" fill="none" xmlns="http://www.w3.org/2000/svg">
<path d="M128 256C198.692 256 256 198.692 256 128C256 57.3075 198.692 0 128 0C57.3075 0 0 57.3075 0 128C0 198.692 57.3075 256 128 256Z" fill="#FFA420"/>
<path d="M166.493 203.683C141.227 212.992 113.469 212.992 88.203 203.683C85.876 202.845 84.015 200.099 84.015 197.725V191.628C84.015 189.254 85.876 188.09 88.204 188.928C113.47 198.237 141.228 198.237 166.494 188.928C168.82 188.09 170.682 189.254 170.682 191.628V197.725C170.636 200.099 168.774 202.845 166.493 203.683Z" fill="#ED1C24"/>
<path d="M166.493 196.236C141.219 209.176 113.478 209.176 88.203 196.236C85.876 195.072 84.015 191.256 84.015 187.951V179.526C84.015 176.221 85.876 174.592 88.204 175.802C113.478 188.742 141.219 188.742 166.494 175.802C168.82 174.639 170.682 176.222 170.682 179.526V187.951C170.636 191.255 168.774 195.072 166.493 196.236Z" fill="#C1272D"/>
<path d="M127.348 210.432C129.327 210.432 130.932 208.827 130.932 206.848C130.932 204.869 129.327 203.264 127.348 203.264C125.369 203.264 123.764 204.869 123.764 206.848C123.764 208.827 125.369 210.432 127.348 210.432Z" fill="#C1272D"/>
<path d="M127.348 209.408C129.045 209.408 130.42 208.033 130.42 206.336C130.42 204.639 129.045 203.264 127.348 203.264C125.651 203.264 124.276 204.639 124.276 206.336C124.276 208.033 125.651 209.408 127.348 209.408Z" fill="#FF931E"/>
<path d="M128.233 208.477C128.825 208.477 129.304 207.997 129.304 207.406C129.304 206.814 128.825 206.335 128.233 206.335C127.642 206.335 127.162 206.814 127.162 207.406C127.162 207.997 127.642 208.477 128.233 208.477Z" fill="#FFB81E"/>
<path d="M127.348 228.072C132.643 228.072 136.936 223.779 136.936 218.484C136.936 213.189 132.643 208.896 127.348 208.896C122.053 208.896 117.76 213.189 117.76 218.484C117.76 223.779 122.053 228.072 127.348 228.072Z" fill="#FF931E"/>
<path d="M127.348 227.188C132.104 227.188 135.959 223.333 135.959 218.577C135.959 213.821 132.104 209.966 127.348 209.966C122.592 209.966 118.737 213.821 118.737 218.577C118.737 223.333 122.592 227.188 127.348 227.188Z" fill="#FFB81E"/>
<path d="M129.862 215.831C130.374 216.297 130.653 216.948 130.653 217.879C130.653 218.81 130.373 219.462 129.862 219.927C129.303 220.346 128.512 220.579 127.395 220.579H126.417V222.673H124.742V215.179H127.395C128.512 215.179 129.35 215.366 129.862 215.831ZM128.652 218.763C128.838 218.531 128.931 218.205 128.931 217.786C128.931 217.367 128.791 217.041 128.559 216.856C128.279 216.669 127.907 216.576 127.349 216.576H126.417V219.089H127.535C128.093 219.089 128.465 218.996 128.652 218.763Z" fill="#FF931E"/>
<path d="M205.033 140.474C207.36 172.358 172.87 200.984 127.813 200.937C82.804 200.983 48.268 172.357 50.595 140.474C52.922 108.497 87.599 82.1061 127.907 82.0601C168.262 82.1061 202.659 108.497 205.033 140.474Z" fill="#F7BD89"/>
<path d="M127.674 77.5911C85.318 77.5911 45.987 107.427 53.434 152.855C54.924 157.045 57.391 167.936 69.167 177.571C72.704 180.457 78.801 182.877 81.687 180.922C89.088 175.895 75.962 161.466 90.95 148.154H90.624C98.769 141.964 110.313 137.03 127.581 137.03C144.849 137.03 156.393 141.964 164.538 148.154H164.212C179.2 161.466 166.121 175.895 173.475 180.922C176.361 182.877 182.505 180.457 185.995 177.571C197.772 167.936 200.285 157.044 201.775 152.855C209.222 107.38 170.031 77.5911 127.675 77.5911H127.674Z" fill="#FBD5A0"/>
<path d="M164.12 153.041C156.998 144.291 143.5 135.82 127.814 135.82H127.628C111.895 135.82 98.398 144.29 91.322 153.041C83.968 161.978 86.622 165.795 86.622 174.359C86.622 205.359 97.466 196.329 104.774 200.052C112.221 203.682 119.761 202.38 127.674 202.38H127.814C135.727 202.38 143.267 203.683 150.714 200.006C157.975 196.282 168.867 205.406 168.867 174.406C168.82 165.888 171.473 161.978 164.119 153.041H164.12Z" fill="black"/>
<path d="M75.403 152.249C82.575 152.249 88.389 146.435 88.389 139.263C88.389 132.091 82.575 126.277 75.403 126.277C68.231 126.277 62.417 132.091 62.417 139.263C62.417 146.435 68.231 152.249 75.403 152.249Z" fill="#F7BD89"/>
<path d="M76.566 150.061C83.738 150.061 89.552 144.247 89.552 137.075C89.552 129.903 83.738 124.089 76.566 124.089C69.394 124.089 63.58 129.903 63.58 137.075C63.58 144.247 69.394 150.061 76.566 150.061Z" fill="black"/>
<path d="M79.871 134.608C81.7217 134.608 83.222 133.108 83.222 131.257C83.222 129.406 81.7217 127.906 79.871 127.906C78.0203 127.906 76.52 129.406 76.52 131.257C76.52 133.108 78.0203 134.608 79.871 134.608Z" fill="white"/>
<path d="M179.666 152.249C186.838 152.249 192.652 146.435 192.652 139.263C192.652 132.091 186.838 126.277 179.666 126.277C172.494 126.277 166.68 132.091 166.68 139.263C166.68 146.435 172.494 152.249 179.666 152.249Z" fill="#F7BD89"/>
<path d="M178.921 150.061C186.093 150.061 191.907 144.247 191.907 137.075C191.907 129.903 186.093 124.089 178.921 124.089C171.749 124.089 165.935 129.903 165.935 137.075C165.935 144.247 171.749 150.061 178.921 150.061Z" fill="black"/>
<path d="M182.226 134.608C184.077 134.608 185.577 133.108 185.577 131.257C185.577 129.406 184.077 127.906 182.226 127.906C180.375 127.906 178.875 129.406 178.875 131.257C178.875 133.108 180.375 134.608 182.226 134.608Z" fill="white"/>
<path d="M100.352 89.2281C100.352 89.2281 56.367 96.8151 54.598 149.364C54.551 150.156 53.713 150.668 53.015 150.249L51.619 149.411L50.549 135.633L52.549 107.52L70.889 93.9751L87.366 87.3191L100.352 89.2281ZM154.95 89.2281C154.95 89.2281 198.935 96.8151 200.704 149.364C200.751 150.156 201.588 150.668 202.287 150.249L203.683 149.411L204.753 135.633L202.752 107.52L184.413 93.9751L167.936 87.3191L154.95 89.2281Z" fill="#F7BD89"/>
<path d="M126.753 182.81V156.3H128.689V182.747C131.542 183.082 135.249 184.74 138.799 185.809C142.476 187.113 146.013 187.625 144.617 187.811C139.776 187.997 134.47 186.181 127.953 186.275C121.391 186.182 116.084 187.997 111.29 187.811C109.894 187.578 113.431 187.066 117.108 185.809C120.474 184.796 123.945 183.252 126.753 182.809V182.81ZM139.869 147.363C141.405 150.761 136.099 156.3 127.674 156.3C119.249 156.3 113.944 150.76 115.479 147.363C116.969 143.872 122.321 142.755 127.674 142.708C133.027 142.755 138.38 143.872 139.869 147.363Z" fill="#4D4D4D"/>
<path d="M100.352 89.2279C100.352 89.2279 48.547 96.3959 53.015 147.828C53.248 150.435 42.682 136.704 34.49 132.515C26.298 128.325 26.577 114.781 26.577 114.781C26.577 114.781 26.437 91.1829 59.532 84.2009C92.579 77.2649 100.352 89.2279 100.352 89.2279ZM154.95 89.2279C154.95 89.2279 206.755 96.3959 202.287 147.828C202.054 150.435 212.62 136.704 220.812 132.515C229.004 128.325 228.724 114.781 228.724 114.781C228.724 114.781 228.864 91.1829 195.77 84.2009C162.723 77.2649 154.95 89.2279 154.95 89.2279Z" fill="black"/>
<path d="M127.72 126.278C111.616 126.278 95.325 142.103 98.723 140.335C105.007 137.03 108.637 131.212 127.721 131.212C146.804 131.212 150.388 137.03 156.719 140.335C160.116 142.103 143.825 126.278 127.721 126.278H127.72Z" fill="#F7BD89"/>
<path d="M127.72 119.343C115.48 119.343 103.145 131.351 105.705 130.001C110.499 127.488 116.643 123.066 127.721 123.066C138.799 123.066 144.943 127.488 149.737 130.001C152.297 131.351 139.962 119.343 127.721 119.343H127.72ZM127.628 80.384C114.129 80.384 100.445 88.111 103.284 87.226C108.591 85.597 115.386 82.758 127.628 82.758C139.869 82.758 146.665 85.598 151.971 87.226C154.811 88.111 141.172 80.384 127.628 80.384Z" fill="#F7BD89"/>
<path d="M130.746 145.501C131.119 146.339 129.816 147.689 127.721 147.689C125.626 147.689 124.323 146.339 124.695 145.501C125.068 144.663 126.371 144.384 127.721 144.337C129.024 144.337 130.374 144.617 130.746 145.501Z" fill="#808080"/>
</svg>
