<svg width="19" height="19" viewBox="0 0 19 19" fill="none" xmlns="http://www.w3.org/2000/svg">
<path d="M9.1072 0.836942C6.70796 0.839346 4.40765 1.79309 2.71096 3.48894C1.01427 5.18478 0.0597765 7.48421 0.0568899 9.88273C0.0550726 11.5905 0.534848 13.2547 1.43988 14.6954L1.65432 15.037L0.740207 18.3744L4.16588 17.4769L4.49482 17.6731C5.88964 18.4984 7.48092 18.9333 9.10175 18.9321H9.10357C11.502 18.9288 13.8013 17.9749 15.4975 16.2796C17.1936 14.5843 18.1482 12.2859 18.1521 9.88818C18.1562 8.69968 17.9245 7.52216 17.4703 6.4238C17.0161 5.32545 16.3485 4.32808 15.506 3.48945C14.668 2.64618 13.6709 1.97753 12.5725 1.52222C11.4741 1.0669 10.2963 0.833981 9.1072 0.836942V0.836942ZM14.4284 13.7688C14.2012 14.4047 13.1144 14.9825 12.5928 15.0606C12.0211 15.1591 11.4341 15.1224 10.8791 14.9534C10.3525 14.7904 9.83508 14.5993 9.32892 14.3811C6.59929 13.2038 4.8183 10.4587 4.68018 10.2752C4.5457 10.0935 3.57161 8.79992 3.57161 7.46277C3.57161 6.12379 4.2731 5.46612 4.52208 5.1936C4.61349 5.09034 4.72523 5.00703 4.85031 4.94889C4.97538 4.89075 5.11111 4.85901 5.24901 4.85568C5.43074 4.85568 5.61066 4.85749 5.77058 4.86476C5.93778 4.87203 6.16131 4.80117 6.38121 5.33168C6.60837 5.87671 7.15357 7.21387 7.22081 7.35013C7.28805 7.48457 7.33349 7.64445 7.24444 7.82613C7.15357 8.00962 7.10996 8.12044 6.97184 8.28032C6.83736 8.4402 6.68652 8.6346 6.56476 8.75814C6.42846 8.89258 6.2867 9.03974 6.44481 9.31226C6.60474 9.58296 7.14994 10.475 7.95683 11.1963C8.99635 12.1228 9.87412 12.4081 10.1449 12.5461C10.4175 12.6806 10.5756 12.6606 10.7355 12.4771C10.8936 12.2936 11.4152 11.6832 11.5969 11.4125C11.7787 11.1399 11.9586 11.1854 12.2094 11.2744C12.4584 11.367 13.7959 12.0229 14.0667 12.1592C14.3357 12.2936 14.5192 12.3626 14.5883 12.4771C14.6537 12.5897 14.6537 13.133 14.4284 13.7688V13.7688Z" fill="black"/>
</svg>
